:SAMPLES-PER-SECOND 30
:FULLY-SPECIFIED
:DEGREES
587
root  -11.3826 38.2626 -6.5679 9.58862 -78.455 -18.4586
RightUpLeg  -9.76527 -12.7859 3.66255
RightLeg  28.2812 2.28014 1.07505
RightFoot  -10.0913 -0.0372871 -2.79748
RightToes  5.23868e-010 0 -3.6325e-017
Spine  6.93592 -3.25741 12.3811
Spine1  15.2064 -2.00884 1.3657
HEad  -6.52026 -1.00356 -3.37005
LeftShoulder1  0.0577255 3.34317 -29.7188
LeftArm  -15.5651 6.66846 -36.9242
LeftForeArm  77.132 -78.7275 -100.02
LeftHand  0.00191731 4.56775 -4.35558
RightShoulder  -0.538996 -5.10297 26.9117
RightArm  -15.0896 -14.1993 33.4017
RightForeArm  116.727 66.4144 151.719
RightHand  -0.0313475 -4.98688 -3.14011
LeftUpLeg  -10.4395 -0.678793 6.22879
LeftLeg  68.2814 -1.17538 -2.49947
LeftFoot  3.93243 0.437492 -3.4387
LeftToes  -4.9204e-010 1.02043e-011 -1.81609e-011
588
root  -12.5826 38.5523 -6.6377 6.6922 -79.1792 -15.2917
RightUpLeg  -7.00734 -12.152 2.97299
RightLeg  26.5134 2.36434 1.08982
RightFoot  -11.2275 -0.073801 -2.44269
RightToes  5.23868e-010 0 -3.6325e-017
Spine  6.47279 -2.74327 12.0898
Spine1  15.1696 -1.31228 0.437101
HEad  -6.06811 -1.28877 -3.48467
LeftShoulder1  0.0168431 3.4562 -29.3914
LeftArm  -15.9897 7.16664 -36.9994
LeftForeArm  77.2034 -78.716 -100.213
LeftHand  -0.00734855 4.76542 -4.31571
RightShoulder  -0.562682 -5.16225 27.1439
RightArm  -14.7394 -13.9463 33.5251
RightForeArm  116.841 66.5463 151.558
RightHand  -0.0360609 -4.77426 -2.45755
LeftUpLeg  -14.0174 -0.32722 5.32842
LeftLeg  66.5059 -1.68844 -3.56656
LeftFoot  1.82377 0.339581 -3.03797
LeftToes  -4.9204e-010 1.02043e-011 -1.81609e-011
589
root  -13.7767 38.8117 -6.65378 2.03314 -79.6342 -10.7965
RightUpLeg  -3.65912 -12.1561 1.71367
RightLeg  24.6453 2.80972 1.55933
RightFoot  -12.2397 -0.101972 -2.43639
RightToes  5.23868e-010 0 -3.6325e-017
Spine  6.29495 -2.28971 11.4446
Spine1  15.1959 -0.842308 0.110596
HEad  -5.68109 -1.12179 -4.24794
LeftShoulder1  -0.00128629 3.50774 -29.9172
LeftArm  -16.3349 7.1624 -36.5114
LeftForeArm  78.1876 -78.7206 -100.659
LeftHand  -0.0250145 5.19547 -4.80561
RightShoulder  -0.503099 -5.00783 26.62
RightArm  -14.659 -14.3604 34.115
RightForeArm  117.265 66.5044 151.653
RightHand  -0.0374515 -4.82175 -2.32245
LeftUpLeg  -16.3532 -0.301819 3.98021
LeftLeg  62.1546 -2.18257 -3.88866
LeftFoot  -0.157689 0.250695 -2.54982
LeftToes  -4.9204e-010 1.02043e-011 -1.81609e-011
590
root  -14.9689 39.0554 -6.67615 -5.05499 -80.5272 -4.22992
RightUpLeg  0.166202 -11.4301 0.153894
RightLeg  22.4729 2.99837 1.84499
RightFoot  -13.1569 -0.126346 -2.37532
RightToes  5.23868e-010 0 -3.6325e-017
Spine  7.57452 -1.85121 10.6015
Spine1  13.7693 -0.102175 -1.0199
HEad  -5.7047 -1.24464 -4.05827
LeftShoulder1  -0.0309113 3.59053 -29.3893
LeftArm  -16.5045 8.3412 -36.2795
LeftForeArm  82.3796 -78.5151 -105.107
LeftHand  -0.00422341 4.7529 -4.85168
RightShoulder  -0.575735 -5.198 27.2308
RightArm  -13.8537 -14.5556 33.4911
RightForeArm  117.058 66.4459 151.709
RightHand  -0.0353263 -4.48865 -1.94702
LeftUpLeg  -17.1101 0.180652 2.36475
LeftLeg  55.1235 -2.76694 -3.79472
LeftFoot  -1.22043 0.18081 -1.96426
LeftToes  -4.9204e-010 1.02043e-011 -1.81609e-011
591
root  -16.129 39.2392 -6.6615 -10.1429 -81.1615 0.733215
RightUpLeg  3.61672 -10.8201 -0.870137
RightLeg  19.9013 3.21868 1.99137
RightFoot  -13.9305 -0.142717 -2.14097
RightToes  5.23868e-010 0 -3.6325e-017
Spine  7.48957 -1.33739 10.0989
Spine1  13.7368 0.482324 -2.01702
HEad  -6.2865 -1.40814 -4.28909
LeftShoulder1  -0.00142936 3.5079 -29.2259
LeftArm  -16.721 8.5611 -36.0911
LeftForeArm  84.4813 -78.4046 -107.124
LeftHand  0.0102225 4.41947 -4.52858
RightShoulder  -0.56906 -5.17575 27.262
RightArm  -13.7853 -14.5741 33.7853
RightForeArm  117.224 66.3449 151.856
RightHand  -0.0348909 -4.88028 -2.26751
LeftUpLeg  -17.4041 0.750104 1.18348
LeftLeg  46.0807 -3.08622 -3.03299
LeftFoot  -1.87176 0.185533 -2.10579
LeftToes  -4.9204e-010 1.02043e-011 -1.81609e-011
592
root  -17.2653 39.3628 -6.61676 -12.0051 -81.3258 2.82019
RightUpLeg  6.64541 -10.3894 -1.37095
RightLeg  17.2549 3.16498 2.12616
RightFoot  -14.4137 -0.15645 -2.19935
RightToes  5.23868e-010 0 -3.6325e-017
Spine  6.04338 -0.91938 9.83907
Spine1  15.1423 0.762864 -2.4413
HEad  -7.0523 -2.23429 -4.32336
LeftShoulder1  0.00783908 3.48105 -29.5411
LeftArm  -17.0576 7.70238 -35.9026
LeftForeArm  83.2108 -78.428 -106.358
LeftHand  -0.022363 5.10799 -4.13583
RightShoulder  -0.535863 -5.09242 26.9216
RightArm  -14.1932 -14.2607 34.6511
RightForeArm  117.212 66.3918 151.794
RightHand  -0.0347976 -4.9207 -2.5459
LeftUpLeg  -17.2664 0.621322 0.423979
LeftLeg  35.1592 -3.18076 -2.06037
LeftFoot  -1.55377 0.262914 -2.95273
LeftToes  -4.9204e-010 1.02043e-011 -1.81609e-011
593
root  -18.3867 39.4369 -6.57958 -10.2452 -81.5728 1.46844
RightUpLeg  9.60783 -9.82908 -1.21006
RightLeg  14.1352 2.93071 2.2815
RightFoot  -14.543 -0.163059 -2.31639
RightToes  5.23868e-010 0 -3.6325e-017
Spine  5.18178 -0.639895 10.0288
Spine1  15.4073 1.03782 -3.27122
HEad  -7.23441 -2.21059 -4.01662
LeftShoulder1  0.0526163 3.35339 -29.0653
LeftArm  -17.562 7.89776 -36.2558
LeftForeArm  84.4911 -78.3399 -107.733
LeftHand  -0.0139324 4.90431 -4.00624
RightShoulder  -0.598944 -5.26021 27.3417
RightArm  -13.9846 -13.6777 34.6542
RightForeArm  116.85 66.631 151.448
RightHand  -0.042401 -4.43313 -2.21078
LeftUpLeg  -16.677 1.31077 0.17106
LeftLeg  23.2289 -3.15119 -1.13207
LeftFoot  -0.939144 0.338892 -3.66811
LeftToes  -4.9204e-010 1.02043e-011 -1.81609e-011
594
root  -19.5334 39.4251 -6.52004 -6.85468 -81.2645 -1.185
RightUpLeg  12.0468 -9.3657 -0.778471
RightLeg  11.4591 2.36092 2.34005
RightFoot  -15.02 -0.170375 -2.14469
RightToes  5.23868e-010 0 -3.6325e-017
Spine  4.09701 -0.660886 9.24025
Spine1  15.3355 0.506835 -2.59551
HEad  -7.06514 -1.5999 -3.65557
LeftShoulder1  -0.0203 3.56047 -29.8182
LeftArm  -17.8987 8.4262 -35.4452
LeftForeArm  86.932 -78.1666 -110.231
LeftHand  -0.0143655 4.93002 -4.20594
RightShoulder  -0.490417 -4.96055 26.825
RightArm  -13.9464 -13.6411 35.2985
RightForeArm  117.524 66.8598 151.209
RightHand  -0.0323918 -4.83025 -1.2747
LeftUpLeg  -16.0986 1.69738 -0.183752
LeftLeg  11.3977 -2.87045 -0.471279
LeftFoot  -1.0871 0.36789 -4.02923
LeftToes  -4.9204e-010 1.02043e-011 -1.81609e-011
595
root  -20.7173 39.3299 -6.44161 -3.97247 -81.3853 -3.41254
RightUpLeg  14.3204 -9.07914 -0.432051
RightLeg  9.40537 2.30704 2.37673
RightFoot  -15.941 -0.182552 -1.85343
RightToes  5.23868e-010 0 -3.6325e-017
Spine  2.60874 -0.501827 9.12368
Spine1  16.0482 0.652147 -3.19442
HEad  -6.90971 -0.456921 -2.90217
LeftShoulder1  0.000935942 3.50124 -29.2378
LeftArm  -18.2155 8.76312 -35.7442
LeftForeArm  88.7088 -78.0418 -111.897
LeftHand  -0.025457 5.18907 -4.26132
RightShoulder  -0.555488 -5.13061 27.3723
RightArm  -13.6958 -13.15 35.5038
RightForeArm  116.581 67.1253 150.755
RightHand  -0.0412953 -4.47619 -2.36192
LeftUpLeg  -15.4149 2.27114 -0.319136
LeftLeg  1.63433 -1.19643 -0.490887
LeftFoot  -0.176765 0.479638 -4.86612
LeftToes  -4.9204e-010 1.02043e-011 -1.81609e-011
596
root  -21.9819 39.1203 -6.32482 -1.58997 -81.6909 -5.75385
RightUpLeg  16.7795 -8.93643 -0.262862
RightLeg  8.69325 2.67406 2.28688
RightFoot  -17.3949 -0.184451 -1.29604
RightToes  5.23868e-010 0 -3.6325e-017
Spine  1.6448 -0.359714 8.48478
Spine1  16.8685 0.618223 -2.86726
HEad  -7.20821 0.490252 -2.65679
LeftShoulder1  -0.0468178 3.63557 -29.3852
LeftArm  -18.4211 8.45758 -35.197
LeftForeArm  89.1912 -77.9481 -112.795
LeftHand  -0.0321987 5.34078 -4.39287
RightShoulder  -0.551256 -5.11615 27.399
RightArm  -13.7561 -12.934 35.9427
RightForeArm  117.028 67.166 150.744
RightHand  -0.0324545 -4.93058 -1.77668
LeftUpLeg  -15.0329 2.70875 -0.286124
LeftLeg  -2.4407 1.55725 -1.13758
LeftFoot  1.24975 0.619115 -5.66597
LeftToes  -4.9204e-010 1.02043e-011 -1.81609e-011
